<svg xmlns="http://www.w3.org/2000/svg" xmlns:v="https://svgstorm.com"
viewBox = "0 0 500 500"
width="500"
height="500">
<g fill="#F5F6F8" fill-opacity="0.00" stroke="None">
<path d="
M 0.00 500.00 
L 500.00 500.00
L 500.00 0.00
L 0.00 0.00
L 0.00 500.00
M 382.00 9.00 
C 393.90 14.49 385.22 35.59 372.93 30.07 C 359.44 24.88 368.43 4.05 382.00 9.00
M 342.00 40.00 
C 357.14 43.81 351.29 70.52 335.78 65.22 C 319.39 62.64 325.93 35.75 342.00 40.00
M 385.00 69.00 
C 396.75 74.17 390.42 94.71 377.00 90.00 C 365.06 84.58 371.77 64.62 385.00 69.00
M 327.00 89.00 
C 336.86 93.04 345.94 100.15 356.07 103.93 C 368.15 101.96 380.63 124.43 362.00 122.00 C 351.56 118.71 342.67 111.95 332.77 107.23 C 320.42 109.53 308.22 86.21 327.00 89.00
M 354.00 143.00 
C 324.97 191.45 347.46 254.72 320.69 303.70 C 302.79 334.76 290.21 368.66 268.75 397.75 C 252.59 418.14 249.09 443.98 240.69 467.69 C 236.98 478.43 229.18 491.69 216.00 491.00 C 182.16 477.83 149.46 460.13 117.75 442.25 C 98.98 420.98 125.76 396.68 138.75 379.75 C 159.37 348.75 164.88 310.92 183.77 278.77 C 198.95 247.27 211.30 212.06 243.25 192.25 C 270.11 171.39 304.74 147.97 308.78 111.78 C 320.67 106.37 331.62 119.78 342.69 123.31 C 352.34 123.79 373.47 140.07 354.00 143.00 Z"/>
</g>
<g fill="#DC143C" fill-opacity="1.00" stroke="None">
<path d="
M 382.00 9.00 
C 368.43 4.05 359.44 24.88 372.93 30.07 C 385.22 35.59 393.90 14.49 382.00 9.00 Z"/>
</g>
<g fill="#DC143C" fill-opacity="1.00" stroke="None">
<path d="
M 342.00 40.00 
C 325.93 35.75 319.39 62.64 335.78 65.22 C 351.29 70.52 357.14 43.81 342.00 40.00 Z"/>
</g>
<g fill="#DC143C" fill-opacity="1.00" stroke="None">
<path d="
M 385.00 69.00 
C 371.77 64.62 365.06 84.58 377.00 90.00 C 390.42 94.71 396.75 74.17 385.00 69.00 Z"/>
</g>
<g fill="#DC143C" fill-opacity="1.00" stroke="None">
<path d="
M 327.00 89.00 
C 308.22 86.21 320.42 109.53 332.77 107.23 C 342.67 111.95 351.56 118.71 362.00 122.00 C 380.63 124.43 368.15 101.96 356.07 103.93 C 345.94 100.15 336.86 93.04 327.00 89.00 Z"/>
</g>
<g fill="#DC143C" fill-opacity="1.00" stroke="None">
<path d="
M 354.00 143.00 
C 373.47 140.07 352.34 123.79 342.69 123.31 C 331.62 119.78 320.67 106.37 308.78 111.78 C 304.74 147.97 270.11 171.39 243.25 192.25 C 211.30 212.06 198.95 247.27 183.77 278.77 C 164.88 310.92 159.37 348.75 138.75 379.75 C 125.76 396.68 98.98 420.98 117.75 442.25 C 149.46 460.13 182.16 477.83 216.00 491.00 C 229.18 491.69 236.98 478.43 240.69 467.69 C 249.09 443.98 252.59 418.14 268.75 397.75 C 290.21 368.66 302.79 334.76 320.69 303.70 C 347.46 254.72 324.97 191.45 354.00 143.00
M 326.00 226.00 
C 326.73 245.28 325.17 263.94 321.00 282.00
C 285.32 268.64 251.69 249.29 217.00 233.00
C 217.49 227.62 223.52 224.78 225.00 220.00
C 256.09 238.43 292.69 217.47 326.00 226.00
M 191.00 301.00 
C 195.41 300.71 199.31 298.32 204.00 299.00
C 205.98 314.41 222.94 306.58 223.77 294.77 C 226.86 284.47 233.87 275.58 236.00 265.00
C 243.06 265.54 253.32 270.32 246.08 278.08 C 237.53 294.95 230.18 332.88 203.31 318.69 C 196.30 315.59 191.28 308.69 191.00 301.00
M 293.00 304.00 
C 288.99 304.19 285.23 305.60 281.00 305.00
C 284.11 290.36 256.56 293.57 267.92 306.08 C 274.62 313.33 284.22 321.42 280.22 332.22 C 272.48 355.04 235.35 342.37 235.00 321.00
C 238.81 320.16 242.16 317.84 246.00 317.00
C 245.61 326.98 263.11 340.01 266.97 325.97 C 264.03 315.76 251.28 310.95 250.07 299.93 C 248.13 271.34 296.02 278.54 293.00 304.00
M 275.00 371.00 
C 259.20 395.96 241.81 420.84 236.22 450.22 C 234.86 463.16 224.59 485.51 208.31 476.69 C 182.20 463.34 155.53 450.98 129.31 437.70 C 113.37 428.96 124.75 409.41 133.75 399.75 C 157.09 379.07 163.48 349.20 174.00 322.00
C 207.77 337.99 241.18 355.02 275.00 371.00 Z"/>
</g>
<g fill="#DC143C" fill-opacity="1.00" stroke="None">
<path d="
M 326.00 226.00 
C 292.69 217.47 256.09 238.43 225.00 220.00
C 223.52 224.78 217.49 227.62 217.00 233.00
C 251.69 249.29 285.32 268.64 321.00 282.00
C 325.17 263.94 326.73 245.28 326.00 226.00 Z"/>
</g>
<g fill="#DC143C" fill-opacity="1.00" stroke="None">
<path d="
M 191.00 301.00 
C 191.28 308.69 196.30 315.59 203.31 318.69 C 230.18 332.88 237.53 294.95 246.08 278.08 C 253.32 270.32 243.06 265.54 236.00 265.00
C 233.87 275.58 226.86 284.47 223.77 294.77 C 222.94 306.58 205.98 314.41 204.00 299.00
C 199.31 298.32 195.41 300.71 191.00 301.00 Z"/>
</g>
<g fill="#DC143C" fill-opacity="1.00" stroke="None">
<path d="
M 293.00 304.00 
C 296.02 278.54 248.13 271.34 250.07 299.93 C 251.28 310.95 264.03 315.76 266.97 325.97 C 263.11 340.01 245.61 326.98 246.00 317.00
C 242.16 317.84 238.81 320.16 235.00 321.00
C 235.35 342.37 272.48 355.04 280.22 332.22 C 284.22 321.42 274.62 313.33 267.92 306.08 C 256.56 293.57 284.11 290.36 281.00 305.00
C 285.23 305.60 288.99 304.19 293.00 304.00 Z"/>
</g>
<g fill="#DC143C" fill-opacity="1.00" stroke="None">
<path d="
M 275.00 371.00 
C 241.18 355.02 207.77 337.99 174.00 322.00
C 163.48 349.20 157.09 379.07 133.75 399.75 C 124.75 409.41 113.37 428.96 129.31 437.70 C 155.53 450.98 182.20 463.34 208.31 476.69 C 224.59 485.51 234.86 463.16 236.22 450.22 C 241.81 420.84 259.20 395.96 275.00 371.00 Z"/>
</g>
</svg>